<svg xmlns="http://www.w3.org/2000/svg" xmlns:xlink="http://www.w3.org/1999/xlink" width="375" viewBox="0 0 375 375" height="375" version="1.0"><defs><g id="a"><path d="M 4.25 -22.78125 C 4.25 -25.25 4.546875 -27.625 5.140625 -29.90625 C 5.734375 -32.1875 6.578125 -34.3125 7.671875 -36.28125 C 8.773438 -38.257812 10.109375 -40.054688 11.671875 -41.671875 C 13.234375 -43.296875 14.976562 -44.6875 16.90625 -45.84375 C 18.84375 -47 20.9375 -47.890625 23.1875 -48.515625 C 25.445312 -49.140625 27.828125 -49.453125 30.328125 -49.453125 C 32.296875 -49.453125 34.023438 -49.320312 35.515625 -49.0625 C 37.015625 -48.8125 38.320312 -48.488281 39.4375 -48.09375 C 40.550781 -47.695312 41.484375 -47.265625 42.234375 -46.796875 C 42.984375 -46.328125 43.609375 -45.878906 44.109375 -45.453125 C 44.078125 -45.453125 44.0625 -45.375 44.0625 -45.21875 C 44.0625 -44.875 44.085938 -44.253906 44.140625 -43.359375 C 44.203125 -42.460938 44.269531 -41.460938 44.34375 -40.359375 C 44.425781 -39.265625 44.492188 -38.148438 44.546875 -37.015625 C 44.609375 -35.878906 44.640625 -34.894531 44.640625 -34.0625 C 44.640625 -33.925781 44.59375 -33.773438 44.5 -33.609375 C 44.414062 -33.441406 44.191406 -33.359375 43.828125 -33.359375 C 43.628906 -33.359375 43.382812 -33.390625 43.09375 -33.453125 C 42.625 -33.585938 42.03125 -33.894531 41.3125 -34.375 C 40.59375 -34.863281 39.753906 -35.367188 38.796875 -35.890625 C 37.835938 -36.421875 36.769531 -36.894531 35.59375 -37.3125 C 34.414062 -37.726562 33.128906 -37.9375 31.734375 -37.9375 C 29.890625 -37.9375 28.210938 -37.570312 26.703125 -36.84375 C 25.203125 -36.113281 23.925781 -35.109375 22.875 -33.828125 C 21.820312 -32.546875 21.003906 -31.019531 20.421875 -29.25 C 19.835938 -27.488281 19.546875 -25.566406 19.546875 -23.484375 C 19.546875 -21.640625 19.742188 -19.878906 20.140625 -18.203125 C 20.546875 -16.535156 21.160156 -15.070312 21.984375 -13.8125 C 22.804688 -12.550781 23.828125 -11.546875 25.046875 -10.796875 C 26.273438 -10.046875 27.695312 -9.671875 29.3125 -9.671875 C 30.59375 -9.671875 31.726562 -9.710938 32.71875 -9.796875 C 33.707031 -9.890625 34.625 -10.035156 35.46875 -10.234375 C 36.320312 -10.441406 37.160156 -10.710938 37.984375 -11.046875 C 38.804688 -11.390625 39.6875 -11.816406 40.625 -12.328125 C 40.675781 -12.347656 40.789062 -12.359375 40.96875 -12.359375 C 41.125 -12.359375 41.226562 -12.296875 41.28125 -12.171875 C 41.34375 -12.054688 41.375 -11.804688 41.375 -11.421875 L 41.375 -7.375 C 41.375 -6.632812 41.367188 -5.910156 41.359375 -5.203125 C 41.347656 -4.492188 41.335938 -3.859375 41.328125 -3.296875 C 41.316406 -2.734375 41.300781 -2.28125 41.28125 -1.9375 C 41.269531 -1.59375 41.253906 -1.421875 41.234375 -1.421875 C 40.203125 -0.765625 39.097656 -0.226562 37.921875 0.1875 C 36.742188 0.601562 35.53125 0.925781 34.28125 1.15625 C 33.03125 1.394531 31.773438 1.550781 30.515625 1.625 C 29.265625 1.707031 28.054688 1.75 26.890625 1.75 C 23.722656 1.75 20.753906 1.148438 17.984375 -0.046875 C 15.222656 -1.253906 12.828125 -2.9375 10.796875 -5.09375 C 8.765625 -7.25 7.164062 -9.828125 6 -12.828125 C 4.832031 -15.835938 4.25 -19.15625 4.25 -22.78125 Z M 4.25 -22.78125"/></g><g id="b"><path d="M 18.90625 -22.984375 C 18.90625 -21.359375 19.078125 -19.734375 19.421875 -18.109375 C 19.773438 -16.484375 20.351562 -15.019531 21.15625 -13.71875 C 21.96875 -12.414062 23.035156 -11.359375 24.359375 -10.546875 C 25.679688 -9.734375 27.320312 -9.328125 29.28125 -9.328125 C 30.78125 -9.421875 32.097656 -9.726562 33.234375 -10.25 C 34.367188 -10.78125 35.34375 -11.46875 36.15625 -12.3125 C 36.976562 -13.15625 37.660156 -14.117188 38.203125 -15.203125 C 38.742188 -16.296875 39.171875 -17.441406 39.484375 -18.640625 C 39.796875 -19.847656 40.015625 -21.078125 40.140625 -22.328125 C 40.265625 -23.585938 40.328125 -24.800781 40.328125 -25.96875 C 40.328125 -27.570312 40.113281 -29.117188 39.6875 -30.609375 C 39.257812 -32.097656 38.617188 -33.414062 37.765625 -34.5625 C 36.910156 -35.707031 35.847656 -36.628906 34.578125 -37.328125 C 33.316406 -38.023438 31.84375 -38.375 30.15625 -38.375 C 28.832031 -38.375 27.632812 -38.125 26.5625 -37.625 C 25.5 -37.132812 24.550781 -36.476562 23.71875 -35.65625 C 22.882812 -34.84375 22.171875 -33.898438 21.578125 -32.828125 C 20.984375 -31.765625 20.488281 -30.664062 20.09375 -29.53125 C 19.695312 -28.394531 19.40625 -27.257812 19.21875 -26.125 C 19.03125 -24.988281 18.925781 -23.941406 18.90625 -22.984375 Z M 25.46875 1.75 C 22.101562 1.75 19.09375 1.125 16.4375 -0.125 C 13.789062 -1.382812 11.550781 -3.085938 9.71875 -5.234375 C 7.882812 -7.378906 6.476562 -9.859375 5.5 -12.671875 C 4.53125 -15.492188 4.046875 -18.476562 4.046875 -21.625 C 4.046875 -25.15625 4.546875 -28.40625 5.546875 -31.375 C 6.546875 -34.351562 7.941406 -36.992188 9.734375 -39.296875 C 11.535156 -41.597656 13.675781 -43.539062 16.15625 -45.125 C 18.632812 -46.707031 21.359375 -47.882812 24.328125 -48.65625 C 24.597656 -48.65625 24.804688 -48.867188 24.953125 -49.296875 C 25.097656 -49.722656 25.222656 -50.191406 25.328125 -50.703125 C 25.441406 -51.222656 25.578125 -51.695312 25.734375 -52.125 C 25.890625 -52.550781 26.117188 -52.765625 26.421875 -52.765625 C 30.773438 -52.316406 34.691406 -51.546875 38.171875 -50.453125 C 41.648438 -49.359375 44.601562 -47.800781 47.03125 -45.78125 C 49.457031 -43.757812 51.316406 -41.203125 52.609375 -38.109375 C 53.898438 -35.023438 54.546875 -31.257812 54.546875 -26.8125 C 54.546875 -23.96875 54.195312 -21.285156 53.5 -18.765625 C 52.800781 -16.253906 51.820312 -13.9375 50.5625 -11.8125 C 49.3125 -9.6875 47.800781 -7.785156 46.03125 -6.109375 C 44.269531 -4.441406 42.3125 -3.019531 40.15625 -1.84375 C 38 -0.675781 35.679688 0.210938 33.203125 0.828125 C 30.722656 1.441406 28.144531 1.75 25.46875 1.75 Z M 25.46875 1.75"/></g><g id="c"><path d="M 35.875 -44.375 C 35.875 -45.175781 35.945312 -45.726562 36.09375 -46.03125 C 36.238281 -46.34375 36.539062 -46.550781 37 -46.65625 L 48.578125 -49.453125 C 48.867188 -49.546875 49.175781 -49.59375 49.5 -49.59375 C 49.8125 -49.59375 50.019531 -49.492188 50.125 -49.296875 C 50.238281 -49.109375 50.296875 -48.722656 50.296875 -48.140625 L 49.890625 -42.859375 C 49.785156 -41.304688 49.664062 -39.765625 49.53125 -38.234375 C 49.394531 -36.710938 49.191406 -35.378906 48.921875 -34.234375 L 48.3125 -29.453125 C 48.132812 -28.035156 47.96875 -26.5 47.8125 -24.84375 C 47.65625 -23.195312 47.484375 -21.351562 47.296875 -19.3125 L 45.71875 -2.703125 C 45.695312 -2.492188 45.648438 -2.285156 45.578125 -2.078125 C 45.515625 -1.878906 45.367188 -1.738281 45.140625 -1.65625 C 44.984375 -1.582031 44.617188 -1.429688 44.046875 -1.203125 C 43.472656 -0.984375 42.789062 -0.726562 42 -0.4375 C 41.21875 -0.144531 40.378906 0.160156 39.484375 0.484375 C 38.585938 0.816406 37.734375 1.113281 36.921875 1.375 C 36.117188 1.644531 35.398438 1.867188 34.765625 2.046875 C 34.140625 2.234375 33.710938 2.328125 33.484375 2.328125 C 33.171875 2.328125 32.894531 2.238281 32.65625 2.0625 C 32.425781 1.894531 32.3125 1.578125 32.3125 1.109375 C 32.3125 -1.609375 32.46875 -4.382812 32.78125 -7.21875 C 33.09375 -10.0625 33.375 -12.890625 33.625 -15.703125 C 33.664062 -16.015625 33.679688 -16.304688 33.671875 -16.578125 C 33.660156 -16.847656 33.675781 -17.140625 33.71875 -17.453125 L 21.390625 -17.453125 L 20.015625 -2.703125 C 19.992188 -2.492188 19.953125 -2.289062 19.890625 -2.09375 C 19.835938 -1.90625 19.6875 -1.757812 19.4375 -1.65625 C 19.351562 -1.601562 18.910156 -1.4375 18.109375 -1.15625 C 17.304688 -0.875 16.382812 -0.546875 15.34375 -0.171875 C 14.300781 0.191406 13.269531 0.554688 12.25 0.921875 C 11.226562 1.296875 10.445312 1.582031 9.90625 1.78125 C 9.632812 1.894531 9.300781 2.015625 8.90625 2.140625 C 8.519531 2.265625 8.132812 2.328125 7.75 2.328125 C 7.4375 2.328125 7.160156 2.234375 6.921875 2.046875 C 6.679688 1.867188 6.5625 1.546875 6.5625 1.078125 C 6.5625 -0.00390625 6.601562 -1.234375 6.6875 -2.609375 C 6.769531 -3.992188 6.863281 -5.441406 6.96875 -6.953125 C 7.082031 -8.472656 7.21875 -10.03125 7.375 -11.625 C 7.53125 -13.21875 7.6875 -14.789062 7.84375 -16.34375 L 7.921875 -17.3125 C 6.097656 -17.3125 4.773438 -17.363281 3.953125 -17.46875 C 3.140625 -17.570312 2.734375 -17.835938 2.734375 -18.265625 C 2.734375 -18.554688 2.898438 -18.9375 3.234375 -19.40625 C 3.679688 -20.03125 4.203125 -20.785156 4.796875 -21.671875 C 5.390625 -22.566406 5.960938 -23.445312 6.515625 -24.3125 C 7.066406 -25.175781 7.5625 -25.945312 8 -26.625 C 8.4375 -27.3125 8.722656 -27.757812 8.859375 -27.96875 L 9.640625 -36.078125 C 9.640625 -36.128906 9.660156 -36.46875 9.703125 -37.09375 C 9.742188 -37.71875 9.796875 -38.460938 9.859375 -39.328125 C 9.929688 -40.191406 10.003906 -41.082031 10.078125 -42 C 10.160156 -42.925781 10.238281 -43.71875 10.3125 -44.375 C 10.351562 -45.15625 10.410156 -45.703125 10.484375 -46.015625 C 10.566406 -46.335938 10.832031 -46.550781 11.28125 -46.65625 L 22.734375 -49.453125 C 23.035156 -49.546875 23.34375 -49.59375 23.65625 -49.59375 C 23.96875 -49.59375 24.175781 -49.492188 24.28125 -49.296875 C 24.394531 -49.109375 24.453125 -48.722656 24.453125 -48.140625 C 24.296875 -46.523438 24.171875 -45.054688 24.078125 -43.734375 C 23.992188 -42.410156 23.898438 -41.175781 23.796875 -40.03125 C 23.703125 -38.882812 23.597656 -37.789062 23.484375 -36.75 C 23.367188 -35.71875 23.210938 -34.664062 23.015625 -33.59375 L 22.34375 -28.375 L 34.5625 -28.5 C 34.769531 -31.488281 34.992188 -34.023438 35.234375 -36.109375 C 35.484375 -38.203125 35.644531 -39.851562 35.71875 -41.0625 C 35.78125 -42.207031 35.820312 -43.023438 35.84375 -43.515625 C 35.863281 -44.015625 35.875 -44.300781 35.875 -44.375 Z M 35.875 -44.375"/></g><g id="d"><path d="M 4.6875 1.078125 L 6.375 -21.96875 C 6.925781 -29.695312 7.335938 -35.367188 7.609375 -38.984375 C 7.878906 -42.597656 8.015625 -44.394531 8.015625 -44.375 C 8.035156 -44.78125 8.054688 -45.113281 8.078125 -45.375 C 8.109375 -45.644531 8.15625 -45.867188 8.21875 -46.046875 C 8.289062 -46.234375 8.378906 -46.367188 8.484375 -46.453125 C 8.597656 -46.546875 8.769531 -46.613281 9 -46.65625 L 20.65625 -49.453125 C 20.945312 -49.546875 21.25 -49.59375 21.5625 -49.59375 C 21.875 -49.59375 22.085938 -49.492188 22.203125 -49.296875 C 22.316406 -49.109375 22.375 -48.722656 22.375 -48.140625 C 22.21875 -46.753906 22.09375 -45.453125 22 -44.234375 C 21.90625 -43.023438 21.832031 -41.867188 21.78125 -40.765625 C 21.726562 -39.660156 21.675781 -38.597656 21.625 -37.578125 C 21.582031 -36.554688 21.53125 -35.539062 21.46875 -34.53125 C 21.332031 -33.4375 21.210938 -32.335938 21.109375 -31.234375 C 21.003906 -30.128906 20.90625 -28.988281 20.8125 -27.8125 C 20.726562 -26.632812 20.632812 -25.390625 20.53125 -24.078125 C 20.4375 -22.765625 20.320312 -21.332031 20.1875 -19.78125 L 18.703125 -2.015625 C 18.679688 -1.816406 18.640625 -1.617188 18.578125 -1.421875 C 18.523438 -1.234375 18.375 -1.085938 18.125 -0.984375 C 18.101562 -0.984375 17.96875 -0.9375 17.71875 -0.84375 C 17.46875 -0.75 17.140625 -0.628906 16.734375 -0.484375 C 16.335938 -0.335938 15.867188 -0.1875 15.328125 -0.03125 C 14.785156 0.125 14.210938 0.269531 13.609375 0.40625 C 12.597656 0.625 11.71875 0.847656 10.96875 1.078125 C 10.21875 1.304688 9.550781 1.515625 8.96875 1.703125 C 8.382812 1.890625 7.84375 2.039062 7.34375 2.15625 C 6.851562 2.269531 6.359375 2.328125 5.859375 2.328125 C 5.523438 2.328125 5.242188 2.234375 5.015625 2.046875 C 4.796875 1.867188 4.6875 1.546875 4.6875 1.078125 Z M 4.6875 1.078125"/></g><g id="e"><path d="M 22.578125 -48.28125 C 22.554688 -47.738281 22.507812 -47.066406 22.4375 -46.265625 C 22.375 -45.472656 22.300781 -44.632812 22.21875 -43.75 C 22.144531 -42.863281 22.054688 -41.960938 21.953125 -41.046875 C 21.847656 -40.140625 21.753906 -39.300781 21.671875 -38.53125 C 21.597656 -37.769531 21.535156 -37.113281 21.484375 -36.5625 C 21.441406 -36.019531 21.421875 -35.671875 21.421875 -35.515625 C 21.335938 -34.117188 21.242188 -32.820312 21.140625 -31.625 C 21.035156 -30.4375 20.925781 -29.257812 20.8125 -28.09375 C 20.707031 -26.925781 20.59375 -25.71875 20.46875 -24.46875 C 20.34375 -23.226562 20.210938 -21.851562 20.078125 -20.34375 C 19.941406 -18.84375 19.789062 -17.171875 19.625 -15.328125 C 19.457031 -13.484375 19.285156 -11.375 19.109375 -9 L 33.046875 -10.40625 C 33.679688 -10.476562 34.195312 -10.515625 34.59375 -10.515625 C 35.09375 -10.515625 35.40625 -10.4375 35.53125 -10.28125 C 35.65625 -10.125 35.71875 -9.875 35.71875 -9.53125 C 35.71875 -9.488281 35.703125 -9.425781 35.671875 -9.34375 C 35.648438 -9.269531 35.597656 -9.117188 35.515625 -8.890625 C 35.441406 -8.671875 35.332031 -8.347656 35.1875 -7.921875 C 35.039062 -7.492188 34.84375 -6.894531 34.59375 -6.125 L 33.859375 -3.90625 C 33.609375 -3.1875 33.375 -2.539062 33.15625 -1.96875 C 32.945312 -1.394531 32.6875 -0.898438 32.375 -0.484375 C 32.0625 -0.0664062 31.664062 0.257812 31.1875 0.5 C 30.71875 0.75 30.113281 0.910156 29.375 0.984375 C 28.90625 1.023438 28.265625 1.0625 27.453125 1.09375 C 26.648438 1.125 25.71875 1.15625 24.65625 1.1875 C 23.601562 1.226562 22.460938 1.269531 21.234375 1.3125 C 20.015625 1.351562 18.765625 1.410156 17.484375 1.484375 C 16.222656 1.523438 14.953125 1.550781 13.671875 1.5625 C 12.398438 1.570312 11.191406 1.585938 10.046875 1.609375 C 8.898438 1.640625 7.84375 1.664062 6.875 1.6875 C 5.90625 1.707031 5.109375 1.726562 4.484375 1.75 C 3.898438 1.75 3.476562 1.703125 3.21875 1.609375 C 2.957031 1.523438 2.828125 1.378906 2.828125 1.171875 C 2.828125 0.929688 2.90625 0.578125 3.0625 0.109375 C 3.21875 -0.347656 3.421875 -0.863281 3.671875 -1.4375 C 3.921875 -2.007812 4.195312 -2.601562 4.5 -3.21875 C 4.800781 -3.832031 5.097656 -4.429688 5.390625 -5.015625 L 6.296875 -17.046875 C 6.472656 -19.085938 6.648438 -21.164062 6.828125 -23.28125 C 7.015625 -25.394531 7.175781 -27.4375 7.3125 -29.40625 L 7.890625 -38.34375 C 8.023438 -40.457031 8.113281 -41.988281 8.15625 -42.9375 C 8.195312 -43.894531 8.21875 -44.414062 8.21875 -44.5 C 8.257812 -44.90625 8.289062 -45.242188 8.3125 -45.515625 C 8.34375 -45.785156 8.382812 -46.007812 8.4375 -46.1875 C 8.5 -46.363281 8.582031 -46.5 8.6875 -46.59375 C 8.800781 -46.6875 8.972656 -46.753906 9.203125 -46.796875 L 21.03125 -49.59375 C 21.269531 -49.6875 21.570312 -49.734375 21.9375 -49.734375 C 22.175781 -49.734375 22.347656 -49.660156 22.453125 -49.515625 C 22.554688 -49.367188 22.609375 -49.09375 22.609375 -48.6875 C 22.609375 -48.632812 22.601562 -48.566406 22.59375 -48.484375 C 22.582031 -48.410156 22.578125 -48.34375 22.578125 -48.28125 Z M 22.578125 -48.28125"/></g></defs><g fill="#FFF"><use x="89.455" y="234.866" xmlns:xlink="http://www.w3.org/1999/xlink" xlink:href="#a" xlink:type="simple" xlink:actuate="onLoad" xlink:show="embed"/><use x="133.052" y="234.866" xmlns:xlink="http://www.w3.org/1999/xlink" xlink:href="#b" xlink:type="simple" xlink:actuate="onLoad" xlink:show="embed"/><use x="187.497" y="234.866" xmlns:xlink="http://www.w3.org/1999/xlink" xlink:href="#a" xlink:type="simple" xlink:actuate="onLoad" xlink:show="embed"/><use x="231.094" y="234.866" xmlns:xlink="http://www.w3.org/1999/xlink" xlink:href="#b" xlink:type="simple" xlink:actuate="onLoad" xlink:show="embed"/></g><g fill="#FFF"><use x="94.916" y="295.711" xmlns:xlink="http://www.w3.org/1999/xlink" xlink:href="#a" xlink:type="simple" xlink:actuate="onLoad" xlink:show="embed"/><use x="138.513" y="295.711" xmlns:xlink="http://www.w3.org/1999/xlink" xlink:href="#c" xlink:type="simple" xlink:actuate="onLoad" xlink:show="embed"/><use x="188.713" y="295.711" xmlns:xlink="http://www.w3.org/1999/xlink" xlink:href="#d" xlink:type="simple" xlink:actuate="onLoad" xlink:show="embed"/><use x="211.219" y="295.711" xmlns:xlink="http://www.w3.org/1999/xlink" xlink:href="#e" xlink:type="simple" xlink:actuate="onLoad" xlink:show="embed"/><use x="245.651" y="295.711" xmlns:xlink="http://www.w3.org/1999/xlink" xlink:href="#e" xlink:type="simple" xlink:actuate="onLoad" xlink:show="embed"/></g><path fill="#6D4C41" d="M 224.863281 73.304688 C 199.085938 47.53125 167.496094 37.339844 141.722656 63.109375 C 115.953125 88.882812 110.738281 135.882812 136.511719 161.652344 C 162.289062 187.425781 209.28125 182.21875 235.054688 156.441406 C 260.832031 130.667969 250.632812 99.078125 224.863281 73.304688 Z M 224.863281 73.304688"/><path fill="#CFD8DC" d="M 221.261719 76.90625 C 207.546875 63.191406 190.316406 55.003906 175.167969 55.003906 C 166.703125 55.003906 159.601562 57.632812 154.640625 62.59375 C 140.464844 76.769531 147.015625 107.28125 168.953125 129.214844 C 182.664062 142.929688 199.898438 151.117188 215.046875 151.117188 C 223.511719 151.117188 230.609375 148.492188 235.574219 143.527344 C 249.75 129.351562 243.195312 98.84375 221.261719 76.90625 Z M 221.261719 76.90625"/><path fill="#FAFAFA" d="M 175.167969 68.734375 C 186.585938 68.734375 200.527344 75.585938 211.554688 86.617188 C 220.191406 95.25 226.378906 105.964844 228.539062 116.011719 C 230.242188 123.929688 229.265625 130.421875 225.867188 133.824219 C 222.914062 136.769531 218.355469 137.386719 215.046875 137.386719 C 203.632812 137.386719 189.6875 130.535156 178.660156 119.503906 C 170.023438 110.871094 163.835938 100.15625 161.675781 90.109375 C 159.972656 82.191406 160.949219 75.699219 164.347656 72.296875 C 167.296875 69.355469 171.855469 68.734375 175.167969 68.734375 M 175.167969 55.003906 C 166.703125 55.003906 159.601562 57.632812 154.640625 62.59375 C 140.464844 76.769531 147.015625 107.28125 168.953125 129.214844 C 182.664062 142.929688 199.898438 151.117188 215.046875 151.117188 C 223.511719 151.117188 230.609375 148.492188 235.574219 143.527344 C 249.75 129.351562 243.199219 98.839844 221.261719 76.90625 C 207.546875 63.191406 190.316406 55.003906 175.167969 55.003906 Z M 175.167969 55.003906"/><path fill="#8D6E63" d="M 226.113281 72.050781 C 210.566406 56.503906 191.496094 48.140625 175.167969 48.140625 L 175.167969 55.003906 C 190.316406 55.003906 207.546875 63.191406 221.261719 76.90625 C 243.199219 98.84375 249.75 129.351562 235.574219 143.527344 C 230.609375 148.492188 223.511719 151.117188 215.046875 151.117188 C 199.898438 151.117188 182.667969 142.929688 168.949219 129.214844 C 147.011719 107.277344 140.460938 76.769531 154.636719 62.59375 C 159.601562 57.632812 166.699219 55.003906 175.167969 55.003906 L 175.167969 48.140625 C 165.210938 48.140625 156.273438 51.25 149.785156 57.738281 C 132.660156 74.863281 139.066406 109.039062 164.101562 134.070312 C 179.644531 149.617188 198.71875 157.980469 215.046875 157.980469 C 225.003906 157.980469 233.941406 154.871094 240.429688 148.382812 C 257.554688 131.253906 251.144531 97.082031 226.113281 72.050781 Z M 226.113281 72.050781"/><path fill="#FAFAFA" d="M 186.867188 133.910156 L 181.375 147.683594 C 178.628906 157.496094 171.078125 168.277344 171.078125 168.277344 L 195.105469 154.546875 L 201.96875 137.386719 Z M 186.867188 133.910156"/><path fill="#5D4037" d="M 171.078125 168.277344 C 171.078125 168.277344 187.1875 165.925781 197.027344 154.914062 L 197.753906 147.949219 C 186.523438 157.914062 178.445312 160.117188 175.792969 160.589844 Z M 171.078125 168.277344"/><path fill="#CFD8DC" d="M 197.757812 147.949219 L 200.542969 132.382812 L 191.671875 129.722656 L 184.054688 140.972656 C 184.054688 140.972656 178.417969 155.453125 175.796875 160.589844 C 175.796875 160.589844 185.464844 159.089844 197.757812 147.949219 Z M 197.757812 147.949219"/><path fill="#B0BEC5" d="M 197.757812 147.949219 L 200.222656 134.164062 C 195.390625 138.316406 185.382812 144.964844 181.375 147.683594 C 179.660156 151.828125 177.515625 156.976562 175.796875 160.589844 C 175.796875 160.589844 185.464844 159.089844 197.757812 147.949219 Z M 197.757812 147.949219"/></svg>